<svg width="40" height="40" viewBox="0 0 40 40" fill="none" xmlns="http://www.w3.org/2000/svg">
  <!-- Google-style colorful D for Daymark -->
  <defs>
    <linearGradient id="blueGradient" x1="0%" y1="0%" x2="100%" y2="100%">
      <stop offset="0%" style="stop-color:#4285F4;stop-opacity:1" />
      <stop offset="100%" style="stop-color:#34A853;stop-opacity:1" />
    </linearGradient>
    <linearGradient id="greenGradient" x1="0%" y1="0%" x2="100%" y2="100%">
      <stop offset="0%" style="stop-color:#34A853;stop-opacity:1" />
      <stop offset="100%" style="stop-color:#FBBC05;stop-opacity:1" />
    </linearGradient>
    <linearGradient id="yellowGradient" x1="0%" y1="0%" x2="100%" y2="100%">
      <stop offset="0%" style="stop-color:#FBBC05;stop-opacity:1" />
      <stop offset="100%" style="stop-color:#EA4335;stop-opacity:1" />
    </linearGradient>
    <linearGradient id="redGradient" x1="0%" y1="0%" x2="100%" y2="100%">
      <stop offset="0%" style="stop-color:#EA4335;stop-opacity:1" />
      <stop offset="100%" style="stop-color:#4285F4;stop-opacity:1" />
    </linearGradient>
  </defs>
  
  <!-- Background circle -->
  <circle cx="20" cy="20" r="18" fill="url(#blueGradient)" stroke="white" stroke-width="1"/>
  
  <!-- D shape - colorful segments -->
  <!-- Top left blue segment -->
  <path d="M12 12 C12 8 16 6 20 6 C24 6 28 8 28 12 L28 20 C28 24 24 26 20 26 L12 26 L12 20 C12 16 12 12 12 12" fill="url(#blueGradient)"/>
  
  <!-- Top right green segment -->
  <path d="M28 12 C32 12 34 16 34 20 C34 24 32 28 28 28 L20 28 C16 28 12 24 12 20 L12 12 C12 8 16 6 20 6 C24 6 28 8 28 12" fill="url(#greenGradient)" opacity="0.8"/>
  
  <!-- Bottom right yellow segment -->
  <path d="M28 28 C24 28 20 32 20 36 C20 32 16 28 12 28 L12 20 C12 16 16 12 20 12 C24 12 28 16 28 20 L28 28" fill="url(#yellowGradient)" opacity="0.7"/>
  
  <!-- Bottom left red segment -->
  <path d="M12 28 C8 28 6 24 6 20 C6 16 8 12 12 12 L20 12 C24 12 28 16 28 20 L28 28 C24 28 20 32 20 36 C20 32 16 28 12 28" fill="url(#redGradient)" opacity="0.6"/>
  
  <!-- White D outline -->
  <path d="M12 12 C12 8 16 6 20 6 C24 6 28 8 28 12 L28 20 C28 24 24 26 20 26 L12 26 L12 20 C12 16 12 12 12 12" fill="none" stroke="white" stroke-width="2"/>
  
  <!-- Inner white D for better visibility -->
  <path d="M14 14 C14 12 16 10 20 10 C24 10 26 12 26 14 L26 18 C26 20 24 22 20 22 L14 22 L14 18 C14 16 14 14 14 14" fill="white" opacity="0.3"/>
</svg>
